<svg width="941" height="159" viewBox="0 0 941 159" fill="none" xmlns="http://www.w3.org/2000/svg">
<path d="M543.719 7.49119L548.507 69.6475L523.977 8.91903L496.371 14.4979V138.494H527.973L526.041 85.8996L549.867 143.278L576.807 140.905L575.841 7.49119H543.719ZM700.507 150.821L759.888 155.104V119.766H734.97V93.1594H756.062V62.5479H734.418V41.431L759.888 40.4659V2.22679L700.507 7.08776V150.821ZM249.422 34.4282L252.639 0H188V159L222.96 152.49V93.8871H245.295L245.937 60.416H222.954V34.4282H249.422ZM292.934 9.61119C258.841 9.61119 250.757 39.6452 250.757 76.6938C250.757 113.742 259.505 143.774 292.934 143.774C326.363 143.774 335.11 113.738 335.11 76.6938C335.11 39.6491 327.032 9.61119 292.934 9.61119ZM292.631 117.027C288.069 117.027 287.276 99.112 287.276 77.0122C287.276 54.9124 287.92 37.0051 292.631 37.0051C297.341 37.0051 297.972 54.9124 297.972 77.0122C297.972 99.112 297.175 117.027 292.631 117.027ZM419.687 55.828C419.687 31.1909 403.182 9.91377 381.907 9.91377H339.769V140.915H372.833L374.235 99.7923L387.638 145.697L422.117 142.823L404.889 90.2345C404.889 90.2345 419.687 80.4532 419.687 55.828ZM373.293 75.8948V39.5562C373.293 39.5562 383.715 38.4507 383.715 57.1115C383.715 75.7722 373.293 75.8948 373.293 75.8948ZM420.657 43.5569H438.904V140.114H473.384V49.286H492.41V15.8169L420.657 10.0819V43.5569ZM623.51 53.7278H642.221V148.73H676.693V49.9347H696.287V16.4656L623.518 20.2587L623.51 53.7278ZM583.901 144.698H619.351V13.6969H583.901V144.698ZM774.129 138.492C769.186 138.492 765.257 142.416 765.257 147.615C765.257 152.814 769.186 156.726 774.129 156.726C779.071 156.726 783 152.81 783 147.613C783 142.416 779.069 138.49 774.129 138.49V138.492ZM774.129 155.199C770.09 155.199 766.903 151.91 766.903 147.615C766.903 143.32 770.09 140.029 774.129 140.029C778.167 140.029 781.352 143.318 781.352 147.615C781.352 151.912 778.167 155.197 774.129 155.197V155.199ZM778.006 145.758C778.006 143.954 776.784 142.892 774.712 142.892H770.515V152.282H772.102V148.885H774.013L776.511 152.28H777.998V151.643L775.767 148.677C777.102 148.355 778.006 147.348 778.006 145.756V145.758ZM774.712 147.455H772.109V144.431H774.712C775.721 144.431 776.465 144.908 776.465 145.916C776.465 146.925 775.721 147.453 774.712 147.453V147.455Z" fill="white"/>
</svg>
